<mxfile host="65bd71144e">
    <diagram id="U3OhJT3p14y7Be85BRR1" name="basilicum-plant-healthstate">
        <mxGraphModel dx="707" dy="863" grid="1" gridSize="10" guides="1" tooltips="1" connect="1" arrows="1" fold="1" page="1" pageScale="1" pageWidth="1169" pageHeight="1654" math="0" shadow="0">
            <root>
                <mxCell id="0"/>
                <mxCell id="1" parent="0"/>
                <mxCell id="4" value="Subclass" style="edgeStyle=none;html=1;exitX=1;exitY=0.5;exitDx=0;exitDy=0;entryX=0;entryY=0.5;entryDx=0;entryDy=0;dashed=1;" parent="1" source="2" target="3" edge="1">
                    <mxGeometry relative="1" as="geometry"/>
                </mxCell>
                <mxCell id="2" value="Basilicum" style="ellipse;whiteSpace=wrap;html=1;fillColor=#66B2FF;" parent="1" vertex="1">
                    <mxGeometry x="80" y="330" width="120" height="80" as="geometry"/>
                </mxCell>
                <mxCell id="6" value="hasIdealMoisture" style="edgeStyle=none;html=1;exitX=0;exitY=0;exitDx=0;exitDy=0;fontFamily=Helvetica;labelBackgroundColor=#66FF66;entryX=0.5;entryY=1;entryDx=0;entryDy=0;" parent="1" source="3" target="10" edge="1">
                    <mxGeometry relative="1" as="geometry">
                        <mxPoint x="310" y="280" as="targetPoint"/>
                    </mxGeometry>
                </mxCell>
                <mxCell id="7" value="hasIdealTemperature" style="edgeStyle=none;html=1;exitX=0.5;exitY=0;exitDx=0;exitDy=0;fontFamily=Helvetica;labelBackgroundColor=#66FF66;entryX=0.5;entryY=1;entryDx=0;entryDy=0;" parent="1" source="3" target="11" edge="1">
                    <mxGeometry relative="1" as="geometry">
                        <mxPoint x="400" y="250" as="targetPoint"/>
                    </mxGeometry>
                </mxCell>
                <mxCell id="8" value="hasPlantId" style="edgeStyle=none;html=1;exitX=1;exitY=0;exitDx=0;exitDy=0;fontFamily=Helvetica;labelBackgroundColor=#66FF66;entryX=0.5;entryY=1;entryDx=0;entryDy=0;" parent="1" source="3" target="12" edge="1">
                    <mxGeometry relative="1" as="geometry">
                        <mxPoint x="500" y="290" as="targetPoint"/>
                    </mxGeometry>
                </mxCell>
                <mxCell id="9" value="hasHealthState" style="edgeStyle=none;html=1;exitX=0.5;exitY=1;exitDx=0;exitDy=0;fontFamily=Helvetica;labelBackgroundColor=#66B2FF;entryX=0.5;entryY=0;entryDx=0;entryDy=0;" parent="1" source="3" target="13" edge="1">
                    <mxGeometry relative="1" as="geometry">
                        <mxPoint x="440" y="480" as="targetPoint"/>
                    </mxGeometry>
                </mxCell>
                <mxCell id="3" value="Plant" style="ellipse;whiteSpace=wrap;html=1;fillColor=#66B2FF;" parent="1" vertex="1">
                    <mxGeometry x="340" y="330" width="120" height="80" as="geometry"/>
                </mxCell>
                <mxCell id="10" value="double" style="rounded=0;whiteSpace=wrap;html=1;fontFamily=Helvetica;fillColor=#FFFF66;" parent="1" vertex="1">
                    <mxGeometry x="240" y="250" width="70" height="30" as="geometry"/>
                </mxCell>
                <mxCell id="11" value="double" style="rounded=0;whiteSpace=wrap;html=1;fontFamily=Helvetica;fillColor=#FFFF66;" parent="1" vertex="1">
                    <mxGeometry x="365" y="210" width="70" height="30" as="geometry"/>
                </mxCell>
                <mxCell id="12" value="string" style="rounded=0;whiteSpace=wrap;html=1;fontFamily=Helvetica;fillColor=#FFFF66;" parent="1" vertex="1">
                    <mxGeometry x="470" y="250" width="70" height="30" as="geometry"/>
                </mxCell>
                <mxCell id="14" value="hasMinNdvi" style="edgeStyle=none;html=1;exitX=0;exitY=1;exitDx=0;exitDy=0;labelBackgroundColor=#66FF66;fontFamily=Helvetica;entryX=0.5;entryY=0;entryDx=0;entryDy=0;" parent="1" source="13" target="16" edge="1">
                    <mxGeometry relative="1" as="geometry">
                        <mxPoint x="320" y="610" as="targetPoint"/>
                    </mxGeometry>
                </mxCell>
                <mxCell id="15" value="hasMaxNdvi" style="edgeStyle=none;html=1;exitX=1;exitY=1;exitDx=0;exitDy=0;labelBackgroundColor=#66FF66;fontFamily=Helvetica;entryX=0.5;entryY=0;entryDx=0;entryDy=0;" parent="1" source="13" target="17" edge="1">
                    <mxGeometry relative="1" as="geometry">
                        <mxPoint x="470" y="620" as="targetPoint"/>
                    </mxGeometry>
                </mxCell>
                <mxCell id="13" value="HealthState" style="ellipse;whiteSpace=wrap;html=1;fillColor=#66B2FF;" parent="1" vertex="1">
                    <mxGeometry x="340" y="490" width="120" height="80" as="geometry"/>
                </mxCell>
                <mxCell id="16" value="double" style="rounded=0;whiteSpace=wrap;html=1;fontFamily=Helvetica;fillColor=#FFFF66;" parent="1" vertex="1">
                    <mxGeometry x="290" y="610" width="70" height="30" as="geometry"/>
                </mxCell>
                <mxCell id="17" value="double" style="rounded=0;whiteSpace=wrap;html=1;fontFamily=Helvetica;fillColor=#FFFF66;" parent="1" vertex="1">
                    <mxGeometry x="435" y="610" width="70" height="30" as="geometry"/>
                </mxCell>
            </root>
        </mxGraphModel>
    </diagram>
</mxfile>